<svg width="58" height="58" viewBox="0 0 58 58" fill="#33363F" xmlns="http://www.w3.org/2000/svg">
<path d="M7.16667 50.1667H12.1833L40.1333 22.3063L35.0271 17.2L7.16667 45.15V50.1667ZM0 57.3333V42.1042L40.1333 2.06042C40.7903 1.40347 41.5517 0.895833 42.4177 0.5375C43.2837 0.179167 44.1944 0 45.15 0C46.1056 0 47.0312 0.179167 47.9271 0.5375C48.8229 0.895833 49.6292 1.43333 50.3458 2.15L55.2729 7.16667C55.9896 7.82361 56.5122 8.6 56.8406 9.49583C57.1691 10.3917 57.3333 11.3174 57.3333 12.2729C57.3333 13.1687 57.1691 14.0497 56.8406 14.9156C56.5122 15.7816 55.9896 16.5729 55.2729 17.2896L15.2292 57.3333H0Z" fill="#33363F"/>
</svg>
